<?xml version="1.0" encoding="UTF-8"?>
<svg version="1.1" xmlns="http://www.w3.org/2000/svg" width="48" height="48">
<path d="M0 0 C1.8125 2.375 1.8125 2.375 3 5 C3.788302 5.67772461 3.788302 5.67772461 4.5925293 6.36914062 C6 8 6 8 6.09692383 10.18554688 C5.96825928 11.02150391 5.83959473 11.85746094 5.70703125 12.71875 C5.57256592 13.64647217 5.43810059 14.57419434 5.29956055 15.5300293 C5.13883057 16.51011963 4.97810059 17.49020996 4.8125 18.5 C4.65885986 19.49362549 4.50521973 20.48725098 4.34692383 21.51098633 C4.04172741 23.46883501 3.72998157 25.42567596 3.41113281 27.38134766 C3.07670409 29.51144417 2.80610754 31.65148756 2.5546875 33.79296875 C1.71821131 40.38689279 1.71821131 40.38689279 -1.5625 43.1875 C-6.97526906 44.46688178 -11.65053198 44.84980758 -16.9375 42.9375 C-21.53794696 38.61586801 -21.67131314 30.44004429 -22.5625 24.4375 C-22.81363096 22.79033848 -23.06492922 21.14320247 -23.31640625 19.49609375 C-23.43105225 18.72152832 -23.54569824 17.94696289 -23.66381836 17.14892578 C-23.95205224 15.30648963 -24.30202282 13.47389644 -24.6640625 11.64453125 C-25.16030686 7.73804945 -23.88622041 5.38218833 -22 2 C-15.85980487 -1.92180205 -6.85003649 -1.6824651 0 0 Z " fill="#1C3B71" transform="translate(34,4)"/>
<path d="M0 0 C1.31226563 0.10828125 2.62453125 0.2165625 3.9765625 0.328125 C7.375 0.75 7.375 0.75 10.375 1.75 C10.705 3.4 11.035 5.05 11.375 6.75 C12.365 7.08 13.355 7.41 14.375 7.75 C14.125 9.625 14.125 9.625 13.375 11.75 C10.4488615 13.61042348 8.14698892 14.00592086 4.71484375 14.015625 C3.83892578 14.01820312 2.96300781 14.02078125 2.06054688 14.0234375 C1.15369141 14.01570313 0.24683594 14.00796875 -0.6875 14 C-1.59822266 14.00773437 -2.50894531 14.01546875 -3.44726562 14.0234375 C-4.32189453 14.02085938 -5.19652344 14.01828125 -6.09765625 14.015625 C-6.89437744 14.01336914 -7.69109863 14.01111328 -8.51196289 14.00878906 C-10.625 13.75 -10.625 13.75 -13.625 11.75 C-13.59182761 10.31152439 -13.52226123 8.8738593 -13.4375 7.4375 C-13.40269531 6.63699219 -13.36789062 5.83648437 -13.33203125 5.01171875 C-12.625 2.75 -12.625 2.75 -10.55078125 0.94140625 C-6.77103438 -0.59774301 -4.04983901 -0.36744101 0 0 Z " fill="#242626" transform="translate(23.625,4.25)"/>
<path d="M0 0 C1.8125 2.375 1.8125 2.375 3 5 C3.788302 5.67772461 3.788302 5.67772461 4.5925293 6.36914062 C6 8 6 8 6.09692383 10.18554688 C5.96825928 11.02150391 5.83959473 11.85746094 5.70703125 12.71875 C5.57256592 13.64647217 5.43810059 14.57419434 5.29956055 15.5300293 C5.13883057 16.51011963 4.97810059 17.49020996 4.8125 18.5 C4.65885986 19.49362549 4.50521973 20.48725098 4.34692383 21.51098633 C4.04172741 23.46883501 3.72998157 25.42567596 3.41113281 27.38134766 C3.07670409 29.51144417 2.80610754 31.65148756 2.5546875 33.79296875 C1.71821131 40.38689279 1.71821131 40.38689279 -1.5625 43.1875 C-6.97526906 44.46688178 -11.65053198 44.84980758 -16.9375 42.9375 C-21.53794696 38.61586801 -21.67131314 30.44004429 -22.5625 24.4375 C-22.81363096 22.79033848 -23.06492922 21.14320247 -23.31640625 19.49609375 C-23.49067139 18.34149658 -23.49067139 18.34149658 -23.66845703 17.16357422 C-24.08613697 14.4378897 -24.53738923 11.71838903 -25 9 C-22.11056554 12.27854032 -21.38528783 14.98316484 -20.68359375 19.26171875 C-20.47669922 20.46248047 -20.26980469 21.66324219 -20.05664062 22.90039062 C-19.85232422 24.15013672 -19.64800781 25.39988281 -19.4375 26.6875 C-19.02745445 29.17189361 -18.60989857 31.65506342 -18.18359375 34.13671875 C-17.91373657 35.78740356 -17.91373657 35.78740356 -17.63842773 37.47143555 C-17.42774658 38.30586182 -17.21706543 39.14028809 -17 40 C-14.41246844 41.29376578 -12.45041015 41.16832397 -9.5625 41.1875 C-8.59441406 41.20167969 -7.62632813 41.21585938 -6.62890625 41.23046875 C-3.76733273 41.19149451 -3.76733273 41.19149451 -1 39 C-0.3082636 36.77483291 -0.3082636 36.77483291 -0.05078125 34.16796875 C0.13774414 32.72260742 0.13774414 32.72260742 0.33007812 31.24804688 C0.44802734 30.23806641 0.56597656 29.22808594 0.6875 28.1875 C0.81705078 27.18912109 0.94660156 26.19074219 1.08007812 25.16210938 C1.63773088 20.73334331 2.00611333 16.46413941 2 12 C2.29044914 10.65667272 2.60955794 9.31774196 3 8 C2.01 7.67 1.02 7.34 0 7 C0 5.35 0 3.7 0 2 C-4.95 1.67 -9.9 1.34 -15 1 C-15 0.67 -15 0.34 -15 0 C-9.67456445 -0.99851917 -5.31652197 -1.24052179 0 0 Z " fill="#030407" transform="translate(34,4)"/>
<path d="M0 0 C0.66 0.33 1.32 0.66 2 1 C1.75 2.875 1.75 2.875 1 5 C-1.9261385 6.86042348 -4.22801108 7.25592086 -7.66015625 7.265625 C-8.53607422 7.26820312 -9.41199219 7.27078125 -10.31445312 7.2734375 C-11.22130859 7.26570313 -12.12816406 7.25796875 -13.0625 7.25 C-13.97322266 7.25773437 -14.88394531 7.26546875 -15.82226562 7.2734375 C-16.69689453 7.27085938 -17.57152344 7.26828125 -18.47265625 7.265625 C-19.26937744 7.26336914 -20.06609863 7.26111328 -20.88696289 7.25878906 C-23 7 -23 7 -26 5 C-25.67 4.01 -25.34 3.02 -25 2 C-23.88625 2.2475 -23.88625 2.2475 -22.75 2.5 C-14.45381112 3.60615852 -7.54306332 3.77153166 0 0 Z " fill="#CFDEDE" transform="translate(36,11)"/>
<path d="M0 0 C3 0.125 3 0.125 4 1.125 C4.30867281 4.59756915 4.38701339 6.5122288 2.5 9.5 C2.005 10.03625 1.51 10.5725 1 11.125 C0.34 10.795 -0.32 10.465 -1 10.125 C-1.33 10.455 -1.66 10.785 -2 11.125 C-2.99 10.795 -3.98 10.465 -5 10.125 C-4.85950482 8.64531676 -4.71245174 7.16625484 -4.5625 5.6875 C-4.48128906 4.86378906 -4.40007813 4.04007813 -4.31640625 3.19140625 C-3.8122879 -0.10092222 -3.4407156 0.14336315 0 0 Z " fill="#241711" transform="translate(25,24.875)"/>
<path d="M0 0 C0 0.66 0 1.32 0 2 C-3.14402481 3.5720124 -6.48947397 3.18446744 -9.9375 3.1875 C-10.66646484 3.19974609 -11.39542969 3.21199219 -12.14648438 3.22460938 C-15.9713391 3.23512685 -17.74356564 3.17095624 -21 1 C-14.28273733 -1.38836006 -6.86386596 -2.28795532 0 0 Z " fill="#C9D7D7" transform="translate(34,6)"/>
<path d="M0 0 C7.26 0 14.52 0 22 0 C21 3 21 3 19 4 C16.15647179 4.09825199 13.34297958 4.13900483 10.5 4.125 C9.71496094 4.12886719 8.92992187 4.13273438 8.12109375 4.13671875 C2.25330787 4.12665394 2.25330787 4.12665394 0 3 C0 2.01 0 1.02 0 0 Z " fill="#C5D3D3" transform="translate(13,9)"/>
<path d="M0 0 C0.99 0.33 1.98 0.66 3 1 C3.36923077 6.41538462 3.36923077 6.41538462 1.5 9.375 C1.005 9.91125 0.51 10.4475 0 11 C-0.66 10.67 -1.32 10.34 -2 10 C-1.67 9.67 -1.34 9.34 -1 9 C-0.76807135 7.48530552 -0.58784762 5.96245438 -0.4375 4.4375 C-0.35371094 3.61121094 -0.26992188 2.78492188 -0.18359375 1.93359375 C-0.12300781 1.29550781 -0.06242187 0.65742188 0 0 Z " fill="#B45C24" transform="translate(26,25)"/>
<path d="M0 0 C2 3 2 3 1.625 5.6875 C1.41875 6.450625 1.2125 7.21375 1 8 C0.01 8 -0.98 8 -2 8 C-1.125 1.125 -1.125 1.125 0 0 Z " fill="#BA5F25" transform="translate(23,26)"/>
<path d="M0 0 C0 0.66 0 1.32 0 2 C-3.01031744 2.93423645 -3.86650268 3.04449911 -7 2 C-7 1.34 -7 0.68 -7 0 C-4.3333581 -1.33332095 -2.83319697 -0.67102033 0 0 Z " fill="#808989" transform="translate(34,6)"/>
</svg>
