<?xml version="1.0" encoding="UTF-8"?>
<svg version="1.1" xmlns="http://www.w3.org/2000/svg" width="40" height="40">
<path d="M0 0 C3.0074041 0.32222187 4.00776762 1.00776762 6.1875 3.1875 C8.14856712 6.23053519 8.66761076 8.42681564 9 12 C9.99 12 10.98 12 12 12 C15.16752056 17.93910106 15.91808863 23.30097965 15 30 C12.95214415 34.16884941 11.26835318 36.28187228 7 38 C1.98184011 38.7121481 -1.94174495 38.52912753 -6.5 36.25 C-9.32357247 33.70878478 -10.64020828 31.74706555 -11.40625 28.02734375 C-11.72935917 20.82470173 -8.70301835 15.9936385 -5 10 C-2.14575295 5.17006221 -2.14575295 5.17006221 0 0 Z " fill="#F58D8C" transform="translate(18,1)"/>
<path d="M0 0 C6.87569061 6.69475138 6.87569061 6.69475138 7.375 11.9375 C7.28237782 14.89596126 7.05650097 15.90959845 5.4375 18.5 C2.11203064 20.54644269 -0.16306413 20.41857482 -4 20 C-4.99 19.34 -5.98 18.68 -7 18 C-7.4734682 14.84354533 -7.72031682 13.01632667 -7 10 C-5.61718262 8.18916772 -4.18345679 6.84722295 -2.41015625 5.421875 C-0.69929466 3.69679573 -0.39883611 2.36272532 0 0 Z " fill="#FEE9A1" transform="translate(20,18)"/>
<path d="M0 0 C3.0074041 0.32222187 4.00776762 1.00776762 6.1875 3.1875 C8.14856712 6.23053519 8.66761076 8.42681564 9 12 C9.99 12 10.98 12 12 12 C15.16752056 17.93910106 15.91808863 23.30097965 15 30 C12.95214415 34.16884941 11.26835318 36.28187228 7 38 C1.98184011 38.7121481 -1.94174495 38.52912753 -6.5 36.25 C-9.32357247 33.70878478 -10.64020828 31.74706555 -11.40625 28.02734375 C-11.72935917 20.82470173 -8.70301835 15.9936385 -5 10 C-2.14575295 5.17006221 -2.14575295 5.17006221 0 0 Z M1 2 C0.70867188 2.60585938 0.41734375 3.21171875 0.1171875 3.8359375 C-2.145955 8.4618577 -4.50135936 12.78560961 -7.375 17.0625 C-9.87806462 21.20393419 -10.83338773 24.15478062 -9.87109375 28.94921875 C-8.2373098 32.79557111 -5.65923255 35.07217371 -2 37 C2.36918719 37.76652407 4.31982163 37.35316954 8.25 35.3125 C12.1913854 31.99815319 13.80138244 29.78755803 14.375 24.625 C13.94268252 20.445931 12.83677344 17.75007911 11 14 C9.68 14.99 8.36 15.98 7 17 C7.06960937 16.12988281 7.06960937 16.12988281 7.140625 15.2421875 C7.40801804 9.45503815 6.84249494 6.40756773 3 2 C2.34 2 1.68 2 1 2 Z " fill="#CA4848" transform="translate(18,1)"/>
</svg>
