<?xml version="1.0" encoding="UTF-8"?>
<svg version="1.1" xmlns="http://www.w3.org/2000/svg" width="40" height="40">
<path d="M0 0 C0.33 0 0.66 0 1 0 C1 1.98 1 3.96 1 6 C2.98 6 4.96 6 7 6 C6.4740625 7.1446875 6.4740625 7.1446875 5.9375 8.3125 C4.67639116 11.04759379 4.67639116 11.04759379 6 14 C6.94916973 26.64951198 6.94916973 26.64951198 3 32 C-2.0233477 37.0233477 -5.56453616 39.14059677 -12.8125 39.25 C-18.62995029 39.17299404 -22.40581164 38.59418836 -26.65234375 34.34765625 C-31.72518167 28.70188605 -32.30670367 24.47120416 -32.20703125 16.94140625 C-31.80923016 11.28962847 -29.57417386 8.34822704 -25.5 4.6875 C-21.48370544 1.3317802 -18.29961821 0.86209572 -13.125 0.875 C-11.58199219 0.87113281 -11.58199219 0.87113281 -10.0078125 0.8671875 C-7 1 -7 1 -4.2421875 1.6328125 C-3.50226562 1.75398437 -2.76234375 1.87515625 -2 2 C-1.34 1.34 -0.68 0.68 0 0 Z " fill="#F79696" transform="translate(33,0)"/>
<path d="M0 0 C1.04027344 -0.01417969 2.08054687 -0.02835937 3.15234375 -0.04296875 C6.01296613 0.18357718 7.63920151 0.71016381 10.0625 2.1875 C9.4025 3.5075 8.7425 4.8275 8.0625 6.1875 C7.381875 6.0225 6.70125 5.8575 6 5.6875 C0.07371156 4.67877005 -4.32173855 4.65689997 -9.42578125 7.92578125 C-12.93980046 10.85867067 -13.80540097 14.16845033 -14.375 18.5625 C-13.82882113 23.08798206 -12.62500727 26.49321756 -9.9375 30.1875 C-5.64556636 33.2395417 -2.13325312 33.81457365 3.0625 33.1875 C7.82062894 31.71265561 10.45338013 30.19635479 13.0625 25.875 C14.43898434 20.799214 14.67668246 16.23182019 13.0625 11.1875 C14.3825 10.5275 15.7025 9.8675 17.0625 9.1875 C20.06808985 14.19282493 19.53365684 19.53361795 19.0625 25.1875 C17.34597789 30.63998198 13.66630327 33.9753009 9.0625 37.1875 C3.21469658 39.13676781 -3.45961492 38.96757493 -9.3125 37.125 C-13.62883181 33.93913605 -17.22370739 30.32887782 -18.9375 25.1875 C-19.88666973 12.53798802 -19.88666973 12.53798802 -15.9375 7.1875 C-10.85362789 2.10362789 -7.33458299 0.04533117 0 0 Z " fill="#E57575" transform="translate(19.9375,0.8125)"/>
<path d="M0 0 C0.7734375 0.495 0.7734375 0.495 1.5625 1 C1.5625 2.32 1.5625 3.64 1.5625 5 C0.5725 4.67 -0.4175 4.34 -1.4375 4 C-7.25579706 3.46424427 -7.25579706 3.46424427 -12.375 5.875 C-15.04196101 8.62277801 -15.39574498 9.446746 -15.6875 13.3125 C-15.422156 17.22632394 -14.80430088 18.93192479 -12.4375 22 C-8.71170911 24.48386059 -6.85038598 24.3804212 -2.4375 24 C0.38525936 22.74544028 2.02538541 21.71615278 3.875 19.25 C5.16327493 15.03382751 4.94452586 11.14607758 3.5625 7 C5.2125 7 6.8625 7 8.5625 7 C10.23624639 12.02123916 10.12294001 16.32232007 8.0625 21.1875 C5.60473143 25.66011772 2.37725683 27.55195283 -2.4375 29 C-7.2589592 29.67669603 -10.69666917 29.04778744 -14.859375 26.39453125 C-18.80761621 22.90561514 -20.22281284 18.52964599 -20.9375 13.4375 C-20.22360962 8.52950362 -18.71068526 4.9130767 -14.859375 1.671875 C-10.08359347 -1.38290417 -5.39834546 -2.21470583 0 0 Z " fill="#FEF8F8" transform="translate(25.4375,6)"/>
<path d="M0 0 C1.0725 0.2475 2.145 0.495 3.25 0.75 C1.25 3.75 1.25 3.75 -0.875 4.4375 C-1.49375 4.540625 -2.1125 4.64375 -2.75 4.75 C-2.75 6.07 -2.75 7.39 -2.75 8.75 C-1.43 8.75 -0.11 8.75 1.25 8.75 C1.91 7.1 2.57 5.45 3.25 3.75 C4.24 3.75 5.23 3.75 6.25 3.75 C5.76470588 10.18014706 5.76470588 10.18014706 3.5 12.6875 C0.72708502 13.99693207 -0.72519717 14.35496057 -3.75 13.75 C-6.31412763 11.32447386 -7.57087126 9.66803481 -8.25 6.1875 C-7.21512911 1.14250442 -5.06169881 -0.33744659 0 0 Z " fill="#FEFAFA" transform="translate(20.75,13.25)"/>
<path d="M0 0 C0 1.98 0 3.96 0 6 C1.98 6 3.96 6 6 6 C-1 13 -1 13 -4.125 13.125 C-5.548125 13.063125 -5.548125 13.063125 -7 13 C-7.46277014 9.83773737 -7.49921925 7.75107761 -5.69921875 5.04296875 C-1.39574847 0 -1.39574847 0 0 0 Z " fill="#517CB5" transform="translate(34,0)"/>
<path d="M0 0 C0.66 0.66 1.32 1.32 2 2 C1.38125 2.556875 0.7625 3.11375 0.125 3.6875 C-2.06106379 6.06645178 -2.98785699 7.96357096 -4 11 C-5.65 10.67 -7.3 10.34 -9 10 C-8.8125 7.625 -8.8125 7.625 -8 5 C-5.625 3.875 -5.625 3.875 -3 3 C-1.22722741 1.47992158 -1.22722741 1.47992158 0 0 Z " fill="#768094" transform="translate(26,12)"/>
<path d="M0 0 C0.375 2.75 0.375 2.75 0 6 C-3 8.375 -3 8.375 -6 10 C-6.33 9.01 -6.66 8.02 -7 7 C-5.8203125 5.17578125 -5.8203125 5.17578125 -4.125 3.3125 C-3.57070313 2.68988281 -3.01640625 2.06726563 -2.4453125 1.42578125 C-1 0 -1 0 0 0 Z " fill="#6992CB" transform="translate(34,0)"/>
<path d="M0 0 C0.99 0.33 1.98 0.66 3 1 C2.01 2.485 2.01 2.485 1 4 C2.32 3.34 3.64 2.68 5 2 C4.67 3.32 4.34 4.64 4 6 C2.35 5.67 0.7 5.34 -1 5 C-0.67 3.35 -0.34 1.7 0 0 Z " fill="#F69F9F" transform="translate(18,17)"/>
<path d="M0 0 C0 0.99 0 1.98 0 3 C-2.5 4.6875 -2.5 4.6875 -5 6 C-5.66 5.34 -6.32 4.68 -7 4 C-3.375 0 -3.375 0 0 0 Z " fill="#759DD5" transform="translate(37,7)"/>
</svg>
