<?xml version="1.0" encoding="UTF-8"?>
<svg version="1.1" xmlns="http://www.w3.org/2000/svg" width="64" height="64">
<path d="M0 0 C1.49080078 0.02707031 1.49080078 0.02707031 3.01171875 0.0546875 C3.77097656 0.07789063 4.53023437 0.10109375 5.3125 0.125 C5.33958567 1.72907328 5.35893483 3.3332785 5.375 4.9375 C5.38660156 5.83082031 5.39820313 6.72414063 5.41015625 7.64453125 C5.3125 10.125 5.3125 10.125 4.3125 13.125 C3.44625 12.856875 2.58 12.58875 1.6875 12.3125 C-2.97046424 12.05372421 -4.19623565 14.203738 -7.6875 17.125 C-11.08893267 17.58288517 -13.76299388 17.37314894 -17.07421875 16.484375 C-22.04402682 15.04339117 -22.04402682 15.04339117 -26.9296875 16.10546875 C-28.28439884 17.01798186 -29.61812476 17.96265322 -30.92578125 18.94140625 C-33.23236294 20.49106091 -34.97450811 20.54890498 -37.6875 20.125 C-38.00390625 17.86328125 -38.00390625 17.86328125 -37.6875 15.125 C-33.54469177 11.25188634 -28.66939473 8.43253539 -23.0625 7.5625 C-19.6875 8.125 -19.6875 8.125 -17.40234375 8.73828125 C-14.08012957 9.6281114 -14.08012957 9.6281114 -10.6875 10.125 C-8.07643869 8.43583369 -8.07643869 8.43583369 -6.6875 6.125 C-7.3475 4.805 -8.0075 3.485 -8.6875 2.125 C-5.26655758 -0.15562828 -4.00562778 -0.09425007 0 0 Z " fill="#9B33C2" transform="translate(47.6875,6.875)"/>
<path d="M0 0 C2.97 0 5.94 0 9 0 C9 9.9 9 19.8 9 30 C6.03 30 3.06 30 0 30 C0 20.1 0 10.2 0 0 Z " fill="#4BCEF0" transform="translate(47,23)"/>
<path d="M0 0 C0.73336075 -0.0033284 1.4667215 -0.0066568 2.2223053 -0.01008606 C3.76790747 -0.0151311 5.31352046 -0.01749514 6.85913086 -0.01733398 C9.21160971 -0.01952098 11.56361955 -0.03770341 13.91601562 -0.05664062 C15.42317549 -0.05957504 16.93033757 -0.06155952 18.4375 -0.0625 C19.13455551 -0.06968552 19.83161102 -0.07687103 20.54978943 -0.08427429 C24.83513317 -0.06442165 28.29975643 0.60273292 32.28515625 2.16796875 C31.95515625 3.15796875 31.62515625 4.14796875 31.28515625 5.16796875 C27.04037752 6.19770636 22.91405406 6.32902296 18.5703125 6.3359375 C17.83695175 6.3392659 17.103591 6.3425943 16.3480072 6.34602356 C14.80240503 6.3510686 13.25679204 6.35343264 11.71118164 6.35327148 C9.35870279 6.35545848 7.00669295 6.37364091 4.65429688 6.39257812 C3.14713701 6.39551254 1.63997493 6.39749702 0.1328125 6.3984375 C-0.56424301 6.40562302 -1.26129852 6.41280853 -1.97947693 6.42021179 C-6.26482067 6.40035915 -9.72944393 5.73320458 -13.71484375 4.16796875 C-13.38484375 3.17796875 -13.05484375 2.18796875 -12.71484375 1.16796875 C-8.47006502 0.13823114 -4.34374156 0.00691454 0 0 Z " fill="#000000" transform="translate(22.71484375,57.83203125)"/>
<path d="M0 0 C2.97 0 5.94 0 9 0 C9 8.58 9 17.16 9 26 C6.03 26 3.06 26 0 26 C0 17.42 0 8.84 0 0 Z " fill="#4CCFF1" transform="translate(21,27)"/>
<path d="M0 0 C2.97 0 5.94 0 9 0 C9 7.26 9 14.52 9 22 C6.03 22 3.06 22 0 22 C0 14.74 0 7.48 0 0 Z " fill="#4BCEF0" transform="translate(34,31)"/>
<path d="M0 0 C2.97 0 5.94 0 9 0 C9 5.28 9 10.56 9 16 C6.03 16 3.06 16 0 16 C0 10.72 0 5.44 0 0 Z " fill="#4BCEF0" transform="translate(8,37)"/>
<path d="M0 0 C2.64 0 5.28 0 8 0 C7.67 1.32 7.34 2.64 7 4 C6.34 4 5.68 4 5 4 C5.03480469 4.68707031 5.06960937 5.37414063 5.10546875 6.08203125 C5.13253906 6.98308594 5.15960937 7.88414063 5.1875 8.8125 C5.22230469 9.70582031 5.25710937 10.59914063 5.29296875 11.51953125 C5 14 5 14 3.61328125 15.82421875 C2 17 2 17 0 17 C0 11.39 0 5.78 0 0 Z " fill="#7FDCF4" transform="translate(21,27)"/>
<path d="M0 0 C0 4.62 0 9.24 0 14 C-2.97 14 -5.94 14 -9 14 C-8.34 12.68 -7.68 11.36 -7 10 C-6.21164613 7.65464723 -5.49469063 5.29486942 -4.78125 2.92578125 C-3.72004179 0.30990301 -2.77248451 0 0 0 Z " fill="#41B0CD" transform="translate(43,39)"/>
<path d="M0 0 C0.99 0 1.98 0 3 0 C3 2.31 3 4.62 3 7 C2.01 7 1.02 7 0 7 C0 4.69 0 2.38 0 0 Z " fill="#F2FBFE" transform="translate(23,30)"/>
</svg>
