<?xml version="1.0" encoding="UTF-8"?>
<svg version="1.1" xmlns="http://www.w3.org/2000/svg" width="32" height="32">
<path d="M0 0 C1.875 -0.36328125 1.875 -0.36328125 4 -0.3125 C4.70125 -0.30863281 5.4025 -0.30476562 6.125 -0.30078125 C8 0 8 0 10 2 C10.1953125 4.1640625 10.1953125 4.1640625 10.125 6.625 C10.10695313 7.44226563 10.08890625 8.25953125 10.0703125 9.1015625 C10.03550781 10.04128906 10.03550781 10.04128906 10 11 C8.02 11.33 6.04 11.66 4 12 C4 15.96 4 19.92 4 24 C2.02 24 0.04 24 -2 24 C-2.05802698 20.56257082 -2.09360486 17.12526747 -2.125 13.6875 C-2.14175781 12.71103516 -2.15851562 11.73457031 -2.17578125 10.72851562 C-2.18222656 9.79072266 -2.18867188 8.85292969 -2.1953125 7.88671875 C-2.20578613 7.02264404 -2.21625977 6.15856934 -2.22705078 5.26831055 C-2 3 -2 3 0 0 Z M2 3 C-0.44989101 6.74235319 -0.23086143 10.44225419 -0.125 14.75 C-0.11597656 15.44738281 -0.10695313 16.14476562 -0.09765625 16.86328125 C-0.07419888 18.57566958 -0.03833104 20.28788004 0 22 C0.66 22 1.32 22 2 22 C2 18.04 2 14.08 2 10 C3.98 9.34 5.96 8.68 8 8 C7.67 6.35 7.34 4.7 7 3 C5.35 3 3.7 3 2 3 Z " fill="#000000" transform="translate(19,4)"/>
<path d="M0 0 C0.70125 -0.01675781 1.4025 -0.03351563 2.125 -0.05078125 C2.74375 0.06910156 3.3625 0.18898437 4 0.3125 C6.16926659 3.56639988 6.24080049 4.44645957 6.1953125 8.19921875 C6.18564453 9.6059082 6.18564453 9.6059082 6.17578125 11.04101562 C6.15902344 12.01748047 6.14226563 12.99394531 6.125 14 C6.11597656 14.98806641 6.10695313 15.97613281 6.09765625 16.99414062 C6.0740843 19.43383765 6.04118022 21.87304697 6 24.3125 C4.02 24.3125 2.04 24.3125 0 24.3125 C0 20.3525 0 16.3925 0 12.3125 C-2.97 11.8175 -2.97 11.8175 -6 11.3125 C-6.05399736 9.85457116 -6.09279177 8.39607288 -6.125 6.9375 C-6.15980469 5.71933594 -6.15980469 5.71933594 -6.1953125 4.4765625 C-5.82834951 0.4106126 -3.58217576 0.01975465 0 0 Z M-3 3.3125 C-3.33 4.9625 -3.66 6.6125 -4 8.3125 C-2.02 8.9725 -0.04 9.6325 2 10.3125 C2 14.2725 2 18.2325 2 22.3125 C2.66 22.3125 3.32 22.3125 4 22.3125 C4.05411124 19.89553128 4.09372278 17.47978213 4.125 15.0625 C4.14175781 14.38058594 4.15851562 13.69867188 4.17578125 12.99609375 C4.21213482 9.2516765 4.07944349 6.48897273 2 3.3125 C0.35 3.3125 -1.3 3.3125 -3 3.3125 Z " fill="#000000" transform="translate(9,3.6875)"/>
<path d="M0 0 C0.66 0 1.32 0 2 0 C2 0.66 2 1.32 2 2 C1.34 2 0.68 2 0 2 C0 1.34 0 0.68 0 0 Z " fill="#000000" transform="translate(23,10)"/>
<path d="M0 0 C0.66 0 1.32 0 2 0 C2 0.66 2 1.32 2 2 C1.34 2 0.68 2 0 2 C0 1.34 0 0.68 0 0 Z " fill="#000000" transform="translate(7,10)"/>
</svg>
