<?xml version="1.0" encoding="UTF-8"?>
<svg version="1.1" xmlns="http://www.w3.org/2000/svg" width="48" height="48">
<path d="M0 0 C3.3 0 6.6 0 10 0 C10 1.98 10 3.96 10 6 C9.34 6 8.68 6 8 6 C8 6.66 8 7.32 8 8 C8.61488281 7.97679687 9.22976562 7.95359375 9.86328125 7.9296875 C10.67152344 7.91164063 11.47976562 7.89359375 12.3125 7.875 C13.11300781 7.85179687 13.91351563 7.82859375 14.73828125 7.8046875 C17 8 17 8 20 10 C21.125 13.4375 21.125 13.4375 22 17 C22.495 18.485 22.495 18.485 23 20 C23.66475679 27.45399418 23.64433645 32.97491487 19 39 C13.60004727 44.00483423 9.15078252 44.35018872 2.015625 44.28125 C-3.52714707 43.76430753 -6.58626145 41.52534949 -10.375 37.4375 C-13.93437157 32.09844265 -13.57838779 26.2016024 -13 20 C-11.41602143 15.14476135 -8.31890355 11.67360696 -4 9 C-0.6875 8.25 -0.6875 8.25 2 8 C2 7.34 2 6.68 2 6 C1.34 6 0.68 6 0 6 C0 4.02 0 2.04 0 0 Z " fill="#C62A2A" transform="translate(19,2)"/>
<path d="M0 0 C5.44533513 0.38895251 8.12686961 2.2148953 12 6 C14.54676486 9.47286118 14.3628022 12.79149443 14 17 C12.01155883 22.33739473 9.09332352 25.45333824 4 28 C-0.64295428 28.38691286 -3.0561853 28.47190735 -7.25 26.375 C-10.7168509 23.3809015 -13.47238201 20.69192851 -14.3828125 16.046875 C-14.68157898 10.82842051 -13.22297499 8.02871874 -10 4 C-6.30652142 7.32413072 -3.56987769 11.29036693 -2 16 C-0.68 16 0.64 16 2 16 C2 14.68 2 13.36 2 12 C1.34 11.67 0.68 11.34 0 11 C0 7.37 0 3.74 0 0 Z " fill="#ECE9E9" transform="translate(24,14)"/>
<path d="M0 0 C0 3.63 0 7.26 0 11 C0.99 11.33 1.98 11.66 3 12 C2.67 13.65 2.34 15.3 2 17 C-0.3125 16.875 -0.3125 16.875 -3 16 C-4.625 13.25 -4.625 13.25 -6 10 C-6.5775 9.113125 -7.155 8.22625 -7.75 7.3125 C-8.36875 6.1678125 -8.36875 6.1678125 -9 5 C-8 2 -8 2 -6.1875 0.8125 C-4 0 -4 0 0 0 Z " fill="#F38563" transform="translate(24,14)"/>
<path d="M0 0 C3.3 0 6.6 0 10 0 C10 1.98 10 3.96 10 6 C9.34 6 8.68 6 8 6 C8 6.66 8 7.32 8 8 C6.02 8 4.04 8 2 8 C2 7.34 2 6.68 2 6 C1.34 6 0.68 6 0 6 C0 4.02 0 2.04 0 0 Z " fill="#8397A1" transform="translate(19,2)"/>
<path d="M0 0 C3.0831351 1.19899698 6.06279492 2.47700477 9 4 C8.67 5.65 8.34 7.3 8 9 C5.6875 8.875 5.6875 8.875 3 8 C0 3.13793103 0 3.13793103 0 0 Z " fill="#474348" transform="translate(18,22)"/>
<path d="M0 0 C2.97 0.495 2.97 0.495 6 1 C6.33 2.65 6.66 4.3 7 6 C4.50638429 4.79618552 2.31856917 3.54571278 0 2 C0 1.34 0 0.68 0 0 Z " fill="#536772" transform="translate(32,10)"/>
</svg>
