<?xml version="1.0" encoding="UTF-8"?>
<svg version="1.1" xmlns="http://www.w3.org/2000/svg" width="30" height="30">
<path d="M0 0 C0 0.66 0 1.32 0 2 C1.0828125 2.3403125 1.0828125 2.3403125 2.1875 2.6875 C5.84239037 4.3931155 7.63300101 5.68620142 10 9 C10.79140907 13.9185704 10.65068654 18.35616032 8.8125 23 C5.96024542 26.14731539 3.30694465 27.82272825 -0.9375 28.3984375 C-1.948125 28.39070313 -2.95875 28.38296875 -4 28.375 C-5.010625 28.38273437 -6.02125 28.39046875 -7.0625 28.3984375 C-11.30694465 27.82272825 -13.96024542 26.14731539 -16.8125 23 C-18.64787398 18.36326574 -18.8061753 13.91101283 -18 9 C-15.6875 6 -15.6875 6 -13 4 C-12.525625 3.4225 -12.05125 2.845 -11.5625 2.25 C-8.28861892 -0.36910487 -4.01403285 0 0 0 Z " fill="#F58D8D" transform="translate(19,1)"/>
<path d="M0 0 C0.66 0.66 1.32 1.32 2 2 C1.21625 2.433125 0.4325 2.86625 -0.375 3.3125 C-3.21698375 4.89220247 -3.21698375 4.89220247 -5 8 C-5.48256365 12.26264558 -5.26873267 14.49132744 -3.25 18.3125 C0.12535742 22.34417692 1.62578538 22.86701149 6.875 23.375 C11.18785966 23.26235068 13.70279071 21.82617939 17 19 C19.58536545 15.59201828 19.43781946 12.1592849 19 8 C16.9209015 4.77381267 15.19960471 3.1330698 12 1 C12.66 0.67 13.32 0.34 14 0 C19.875 3.75 19.875 3.75 21 6 C21.40678241 10.85792065 21.62085653 15.43152035 19.8125 20 C16.96024542 23.14731539 14.30694465 24.82272825 10.0625 25.3984375 C9.051875 25.39070313 8.04125 25.38296875 7 25.375 C5.989375 25.38273437 4.97875 25.39046875 3.9375 25.3984375 C-0.30694465 24.82272825 -2.96024542 23.14731539 -5.8125 20 C-7.64710178 15.36521655 -7.81073886 10.9086553 -7 6 C-4.7984026 3.10316132 -3.21405538 1.60702769 0 0 Z " fill="#CA4747" transform="translate(8,4)"/>
<path d="M0 0 C0 0.66 0 1.32 0 2 C0.66 2 1.32 2 2 2 C2.33 3.98 2.66 5.96 3 8 C1.68 8 0.36 8 -1 8 C-1.33 9.32 -1.66 10.64 -2 12 C-2.99 11.67 -3.98 11.34 -5 11 C-5 10.01 -5 9.02 -5 8 C-6.98 8 -8.96 8 -11 8 C-10.67 5.69 -10.34 3.38 -10 1 C-6.56484998 0.37542727 -3.50935186 0 0 0 Z " fill="#7FA585" transform="translate(19,1)"/>
<path d="M0 0 C0.33 0.99 0.66 1.98 1 3 C1.99 3 2.98 3 4 3 C4 3.99 4 4.98 4 6 C3.34 6 2.68 6 2 6 C0.37485532 7.45833358 0.37485532 7.45833358 -1 9 C-1 7.68 -1 6.36 -1 5 C-2.65 5.33 -4.3 5.66 -6 6 C-5.34 5.67 -4.68 5.34 -4 5 C-4.66 3.68 -5.32 2.36 -6 1 C-3.525 1.99 -3.525 1.99 -1 3 C-0.67 2.01 -0.34 1.02 0 0 Z " fill="#AED7B4" transform="translate(16,2)"/>
<path d="M0 0 C0 0.66 0 1.32 0 2 C0.66 2 1.32 2 2 2 C1.67 2.66 1.34 3.32 1 4 C-1.0625 4.625 -1.0625 4.625 -3 5 C-3 4.01 -3 3.02 -3 2 C-3.33 2.66 -3.66 3.32 -4 4 C-6.475 3.01 -6.475 3.01 -9 2 C-9.33 2.66 -9.66 3.32 -10 4 C-10 3.01 -10 2.02 -10 1 C-6.56484998 0.37542727 -3.50935186 0 0 0 Z " fill="#659F79" transform="translate(19,1)"/>
</svg>
