<?xml version="1.0" encoding="UTF-8"?>
<svg version="1.1" xmlns="http://www.w3.org/2000/svg" width="100" height="100">
<path d="M0 0 C0.78890625 -0.00386719 1.5778125 -0.00773438 2.390625 -0.01171875 C3.21046875 -0.00011719 4.0303125 0.01148438 4.875 0.0234375 C6.10476562 0.00603516 6.10476562 0.00603516 7.359375 -0.01171875 C8.54273437 -0.00591797 8.54273437 -0.00591797 9.75 0 C10.46929687 0.00338379 11.18859375 0.00676758 11.9296875 0.01025391 C14.44921891 0.51302185 15.34744038 1.35871712 16.875 3.3984375 C17.0625 6.5859375 17.0625 6.5859375 16.875 9.3984375 C17.59155762 9.38796387 18.30811523 9.37749023 19.04638672 9.36669922 C22.28088905 9.32522451 25.51533553 9.29913858 28.75 9.2734375 C29.87792969 9.25667969 31.00585938 9.23992188 32.16796875 9.22265625 C33.24433594 9.21621094 34.32070312 9.20976562 35.4296875 9.203125 C36.42468262 9.19265137 37.41967773 9.18217773 38.44482422 9.17138672 C40.875 9.3984375 40.875 9.3984375 42.875 11.3984375 C43.12896729 13.78942871 43.12896729 13.78942871 43.13378906 16.82617188 C43.14009338 17.96074829 43.14639771 19.09532471 43.15289307 20.26428223 C43.1488446 21.49449097 43.14479614 22.72469971 43.140625 23.9921875 C43.14253845 25.24978882 43.1444519 26.50739014 43.14642334 27.80310059 C43.14778649 30.46636625 43.14508006 33.1292668 43.13574219 35.79248047 C43.12434752 39.20915144 43.13090748 42.62550822 43.14288712 46.04216766 C43.15184454 49.29635229 43.14557628 52.55049877 43.140625 55.8046875 C43.14467346 57.03489624 43.14872192 58.26510498 43.15289307 59.53259277 C43.14343658 61.2344574 43.14343658 61.2344574 43.13378906 62.97070312 C43.13219788 63.97282837 43.13060669 64.97495361 43.12896729 66.00744629 C42.875 68.3984375 42.875 68.3984375 40.875 70.3984375 C37.91455078 70.65240479 37.91455078 70.65240479 34.0703125 70.65722656 C33.37097595 70.6607312 32.6716394 70.66423584 31.95111084 70.66784668 C29.63397362 70.67666626 27.31714045 70.6708142 25 70.6640625 C23.39339133 70.66540909 21.78678305 70.66734957 20.18017578 70.66986084 C16.81083298 70.6728124 13.44159613 70.66851347 10.07226562 70.65917969 C5.74760506 70.64778508 1.42319271 70.65434439 -2.90145874 70.66632462 C-6.2196643 70.67354238 -9.53781075 70.67125569 -12.85601807 70.66606903 C-14.450867 70.6647323 -16.04572125 70.66638108 -17.64056396 70.67102814 C-19.86729198 70.67609206 -22.09361476 70.66838538 -24.3203125 70.65722656 C-25.58891113 70.65563538 -26.85750977 70.65404419 -28.16455078 70.65240479 C-31.125 70.3984375 -31.125 70.3984375 -33.125 68.3984375 C-33.37896729 66.00744629 -33.37896729 66.00744629 -33.38378906 62.97070312 C-33.39009338 61.83612671 -33.39639771 60.70155029 -33.40289307 59.53259277 C-33.3988446 58.30238403 -33.39479614 57.07217529 -33.390625 55.8046875 C-33.39253845 54.54708618 -33.3944519 53.28948486 -33.39642334 51.99377441 C-33.39778649 49.33050875 -33.39508006 46.6676082 -33.38574219 44.00439453 C-33.37434752 40.58772356 -33.38090748 37.17136678 -33.39288712 33.75470734 C-33.40184454 30.50052271 -33.39557628 27.24637623 -33.390625 23.9921875 C-33.39467346 22.76197876 -33.39872192 21.53177002 -33.40289307 20.26428223 C-33.39658875 19.12970581 -33.39028442 17.99512939 -33.38378906 16.82617188 C-33.38219788 15.82404663 -33.38060669 14.82192139 -33.37896729 13.78942871 C-33.125 11.3984375 -33.125 11.3984375 -31.125 9.3984375 C-28.69482422 9.17138672 -28.69482422 9.17138672 -25.6796875 9.203125 C-24.06513672 9.21279297 -24.06513672 9.21279297 -22.41796875 9.22265625 C-21.29003906 9.23941406 -20.16210938 9.25617187 -19 9.2734375 C-17.29650391 9.28697266 -17.29650391 9.28697266 -15.55859375 9.30078125 C-12.74718701 9.32440652 -9.93619702 9.35734737 -7.125 9.3984375 C-7.186875 8.4703125 -7.24875 7.5421875 -7.3125 6.5859375 C-7.125 3.3984375 -7.125 3.3984375 -5.87109375 1.72412109 C-3.74462737 0.10964788 -2.64667295 0.01245075 0 0 Z M-4.125 4.3984375 C-4.455 6.0484375 -4.785 7.6984375 -5.125 9.3984375 C1.475 9.3984375 8.075 9.3984375 14.875 9.3984375 C14.215 7.4184375 13.555 5.4384375 12.875 3.3984375 C9.96413331 2.4281486 7.97276315 2.23375903 4.9375 2.2109375 C3.65552734 2.18966797 3.65552734 2.18966797 2.34765625 2.16796875 C-0.38143046 2.4223386 -1.92155191 2.75694261 -4.125 4.3984375 Z " fill="#AA7152" transform="translate(45.125,11.6015625)"/>
<path d="M0 0 C1.98 0 3.96 0 6 0 C6.33 1.98 6.66 3.96 7 6 C17.56 6 28.12 6 39 6 C39.33 4.02 39.66 2.04 40 0 C41.98 0 43.96 0 46 0 C46.495 2.97 46.495 2.97 47 6 C48.6256807 5.69106068 50.25052748 5.3777305 51.875 5.0625 C53.23238281 4.80146484 53.23238281 4.80146484 54.6171875 4.53515625 C56.99956317 4.10036299 56.99956317 4.10036299 59 3 C59.04938628 7.23582327 59.08571263 11.47149465 59.10986328 15.70751953 C59.11992963 17.14895547 59.1335838 18.59037095 59.15087891 20.03173828 C59.17510012 22.10193934 59.18647641 24.17187076 59.1953125 26.2421875 C59.20578613 27.4885498 59.21625977 28.73491211 59.22705078 30.01904297 C59 33 59 33 57 35 C54.19140625 35.25396729 54.19140625 35.25396729 50.5625 35.25878906 C49.5720166 35.26404602 49.5720166 35.26404602 48.56152344 35.26940918 C46.37424268 35.27822681 44.18728417 35.27237743 42 35.265625 C40.48307228 35.26697165 38.96614499 35.26891217 37.44921875 35.27142334 C34.26818742 35.27437464 31.08726831 35.27007684 27.90625 35.26074219 C23.82372098 35.24934757 19.74145491 35.25590702 15.65893555 35.26788712 C12.52602142 35.27510561 9.39316989 35.27281786 6.26025391 35.26763153 C4.75471974 35.266295 3.24917993 35.26794288 1.74365234 35.27259064 C-0.35855212 35.27765579 -2.46032758 35.26994627 -4.5625 35.25878906 C-5.76003906 35.25719788 -6.95757812 35.25560669 -8.19140625 35.25396729 C-11 35 -11 35 -13 33 C-13.22705078 30.01904297 -13.22705078 30.01904297 -13.1953125 26.2421875 C-13.1924826 25.57913605 -13.18965271 24.91608459 -13.18673706 24.23294067 C-13.17553435 22.11344417 -13.15043051 19.99436896 -13.125 17.875 C-13.11497028 16.43880818 -13.10584441 15.00260975 -13.09765625 13.56640625 C-13.075595 10.04413372 -13.04106494 6.52210797 -13 3 C-12.38415039 3.32145996 -11.76830078 3.64291992 -11.13378906 3.97412109 C-7.82731427 5.56380154 -4.63491309 5.63650869 -1 6 C-0.67 4.02 -0.34 2.04 0 0 Z " fill="#A76F51" transform="translate(27,45)"/>
<path d="M0 0 C0.78890625 -0.00386719 1.5778125 -0.00773438 2.390625 -0.01171875 C3.21046875 -0.00011719 4.0303125 0.01148438 4.875 0.0234375 C6.10476562 0.00603516 6.10476562 0.00603516 7.359375 -0.01171875 C8.54273437 -0.00591797 8.54273437 -0.00591797 9.75 0 C10.46929687 0.00338379 11.18859375 0.00676758 11.9296875 0.01025391 C14.44921891 0.51302185 15.34744038 1.35871712 16.875 3.3984375 C17.0625 6.5859375 17.0625 6.5859375 16.875 9.3984375 C17.59155762 9.38796387 18.30811523 9.37749023 19.04638672 9.36669922 C22.28088905 9.32522451 25.51533553 9.29913858 28.75 9.2734375 C29.87792969 9.25667969 31.00585938 9.23992188 32.16796875 9.22265625 C33.24433594 9.21621094 34.32070312 9.20976562 35.4296875 9.203125 C36.42468262 9.19265137 37.41967773 9.18217773 38.44482422 9.17138672 C40.875 9.3984375 40.875 9.3984375 42.875 11.3984375 C43.12896729 13.78942871 43.12896729 13.78942871 43.13378906 16.82617188 C43.14009338 17.96074829 43.14639771 19.09532471 43.15289307 20.26428223 C43.1488446 21.49449097 43.14479614 22.72469971 43.140625 23.9921875 C43.14253845 25.24978882 43.1444519 26.50739014 43.14642334 27.80310059 C43.14778649 30.46636625 43.14508006 33.1292668 43.13574219 35.79248047 C43.12434752 39.20915144 43.13090748 42.62550822 43.14288712 46.04216766 C43.15184454 49.29635229 43.14557628 52.55049877 43.140625 55.8046875 C43.14467346 57.03489624 43.14872192 58.26510498 43.15289307 59.53259277 C43.14343658 61.2344574 43.14343658 61.2344574 43.13378906 62.97070312 C43.13219788 63.97282837 43.13060669 64.97495361 43.12896729 66.00744629 C42.875 68.3984375 42.875 68.3984375 40.875 70.3984375 C37.91455078 70.65240479 37.91455078 70.65240479 34.0703125 70.65722656 C33.37097595 70.6607312 32.6716394 70.66423584 31.95111084 70.66784668 C29.63397362 70.67666626 27.31714045 70.6708142 25 70.6640625 C23.39339133 70.66540909 21.78678305 70.66734957 20.18017578 70.66986084 C16.81083298 70.6728124 13.44159613 70.66851347 10.07226562 70.65917969 C5.74760506 70.64778508 1.42319271 70.65434439 -2.90145874 70.66632462 C-6.2196643 70.67354238 -9.53781075 70.67125569 -12.85601807 70.66606903 C-14.450867 70.6647323 -16.04572125 70.66638108 -17.64056396 70.67102814 C-19.86729198 70.67609206 -22.09361476 70.66838538 -24.3203125 70.65722656 C-25.58891113 70.65563538 -26.85750977 70.65404419 -28.16455078 70.65240479 C-31.125 70.3984375 -31.125 70.3984375 -33.125 68.3984375 C-33.37896729 66.00744629 -33.37896729 66.00744629 -33.38378906 62.97070312 C-33.39009338 61.83612671 -33.39639771 60.70155029 -33.40289307 59.53259277 C-33.3988446 58.30238403 -33.39479614 57.07217529 -33.390625 55.8046875 C-33.39253845 54.54708618 -33.3944519 53.28948486 -33.39642334 51.99377441 C-33.39778649 49.33050875 -33.39508006 46.6676082 -33.38574219 44.00439453 C-33.37434752 40.58772356 -33.38090748 37.17136678 -33.39288712 33.75470734 C-33.40184454 30.50052271 -33.39557628 27.24637623 -33.390625 23.9921875 C-33.39467346 22.76197876 -33.39872192 21.53177002 -33.40289307 20.26428223 C-33.39658875 19.12970581 -33.39028442 17.99512939 -33.38378906 16.82617188 C-33.38219788 15.82404663 -33.38060669 14.82192139 -33.37896729 13.78942871 C-33.125 11.3984375 -33.125 11.3984375 -31.125 9.3984375 C-28.69482422 9.17138672 -28.69482422 9.17138672 -25.6796875 9.203125 C-24.06513672 9.21279297 -24.06513672 9.21279297 -22.41796875 9.22265625 C-21.29003906 9.23941406 -20.16210938 9.25617187 -19 9.2734375 C-17.29650391 9.28697266 -17.29650391 9.28697266 -15.55859375 9.30078125 C-12.74718701 9.32440652 -9.93619702 9.35734737 -7.125 9.3984375 C-7.186875 8.4703125 -7.24875 7.5421875 -7.3125 6.5859375 C-7.125 3.3984375 -7.125 3.3984375 -5.87109375 1.72412109 C-3.74462737 0.10964788 -2.64667295 0.01245075 0 0 Z M-4.125 4.3984375 C-4.455 6.0484375 -4.785 7.6984375 -5.125 9.3984375 C1.475 9.3984375 8.075 9.3984375 14.875 9.3984375 C14.215 7.4184375 13.555 5.4384375 12.875 3.3984375 C9.96413331 2.4281486 7.97276315 2.23375903 4.9375 2.2109375 C3.65552734 2.18966797 3.65552734 2.18966797 2.34765625 2.16796875 C-0.38143046 2.4223386 -1.92155191 2.75694261 -4.125 4.3984375 Z M-31.125 13.3984375 C-31.59830426 16.48048351 -31.49536907 19.59663683 -31.5 22.7109375 C-31.52449219 23.56623047 -31.54898437 24.42152344 -31.57421875 25.30273438 C-31.59342526 29.43533524 -31.44748558 31.83229614 -29.3671875 35.484375 C-27.32572162 37.52675536 -27.32572162 37.52675536 -24.984375 37.88671875 C-24.28828125 37.82871094 -23.5921875 37.77070312 -22.875 37.7109375 C-21.01875 37.55625 -21.01875 37.55625 -19.125 37.3984375 C-19.125 35.7484375 -19.125 34.0984375 -19.125 32.3984375 C-16.485 32.3984375 -13.845 32.3984375 -11.125 32.3984375 C-11.125 34.0484375 -11.125 35.6984375 -11.125 37.3984375 C-0.565 37.3984375 9.995 37.3984375 20.875 37.3984375 C20.875 35.7484375 20.875 34.0984375 20.875 32.3984375 C23.515 32.3984375 26.155 32.3984375 28.875 32.3984375 C28.875 34.0484375 28.875 35.6984375 28.875 37.3984375 C32.98864317 37.80173585 35.15254819 37.90852595 38.5859375 35.484375 C41.77067974 31.19095116 41.5123067 27.90982958 41.3125 22.7109375 C41.30669922 21.84404297 41.30089844 20.97714844 41.29492188 20.08398438 C41.44524616 15.22594318 41.44524616 15.22594318 38.875 11.3984375 C35.93405405 11.09062622 35.93405405 11.09062622 32.4375 11.13964844 C31.77717773 11.1361438 31.11685547 11.13263916 30.43652344 11.12902832 C28.24924268 11.12021069 26.06228417 11.12606007 23.875 11.1328125 C22.35807228 11.13146585 20.84114499 11.12952533 19.32421875 11.12701416 C16.14318742 11.12406286 12.96226831 11.12836066 9.78125 11.13769531 C5.69872098 11.14908993 1.61645491 11.14253048 -2.46606445 11.13055038 C-5.59897858 11.12333189 -8.73183011 11.12561964 -11.86474609 11.13080597 C-13.37028026 11.1321425 -14.87582007 11.13049462 -16.38134766 11.12584686 C-18.48355212 11.12078171 -20.58532758 11.12849123 -22.6875 11.13964844 C-24.48380859 11.14203522 -24.48380859 11.14203522 -26.31640625 11.14447021 C-29.26214258 11.10854466 -29.26214258 11.10854466 -31.125 13.3984375 Z M-18.125 33.3984375 C-18.455 35.3784375 -18.785 37.3584375 -19.125 39.3984375 C-20.7506807 39.08949818 -22.37552748 38.776168 -24 38.4609375 C-24.90492187 38.28691406 -25.80984375 38.11289062 -26.7421875 37.93359375 C-29.125 37.3984375 -29.125 37.3984375 -31.125 36.3984375 C-31.17438628 40.63426077 -31.21071263 44.86993215 -31.23486328 49.10595703 C-31.24492963 50.54739297 -31.2585838 51.98880845 -31.27587891 53.43017578 C-31.30010012 55.50037684 -31.31147641 57.57030826 -31.3203125 59.640625 C-31.33078613 60.8869873 -31.34125977 62.13334961 -31.35205078 63.41748047 C-31.44152492 66.51615381 -31.44152492 66.51615381 -29.125 68.3984375 C-26.18405405 68.70624878 -26.18405405 68.70624878 -22.6875 68.65722656 C-21.6970166 68.66248352 -21.6970166 68.66248352 -20.68652344 68.66784668 C-18.49924268 68.67666431 -16.31228417 68.67081493 -14.125 68.6640625 C-12.60807228 68.66540915 -11.09114499 68.66734967 -9.57421875 68.66986084 C-6.39318742 68.67281214 -3.21226831 68.66851434 -0.03125 68.65917969 C4.05127902 68.64778507 8.13354509 68.65434452 12.21606445 68.66632462 C15.34897858 68.67354311 18.48183011 68.67125536 21.61474609 68.66606903 C23.12028026 68.6647325 24.62582007 68.66638038 26.13134766 68.67102814 C28.23355212 68.67609329 30.33532758 68.66838377 32.4375 68.65722656 C33.63503906 68.65563538 34.83257812 68.65404419 36.06640625 68.65240479 C39.01214258 68.68833034 39.01214258 68.68833034 40.875 66.3984375 C41.15404629 63.28804806 41.15404629 63.28804806 41.0703125 59.640625 C41.06606766 58.64604782 41.06606766 58.64604782 41.06173706 57.63137817 C41.05053435 55.51188167 41.02543051 53.39280646 41 51.2734375 C40.98997028 49.83724568 40.98084441 48.40104725 40.97265625 46.96484375 C40.950595 43.44257122 40.91606494 39.92054547 40.875 36.3984375 C40.12863281 36.71554688 39.38226563 37.03265625 38.61328125 37.359375 C35.38562285 38.58413553 32.29382847 38.99622239 28.875 39.3984375 C28.38 36.4284375 28.38 36.4284375 27.875 33.3984375 C25.895 33.3984375 23.915 33.3984375 21.875 33.3984375 C21.545 35.3784375 21.215 37.3584375 20.875 39.3984375 C10.315 39.3984375 -0.245 39.3984375 -11.125 39.3984375 C-11.455 37.4184375 -11.785 35.4384375 -12.125 33.3984375 C-14.105 33.3984375 -16.085 33.3984375 -18.125 33.3984375 Z " fill="#20222B" transform="translate(45.125,11.6015625)"/>
<path d="M0 0 C1.98 0 3.96 0 6 0 C6 3.3 6 6.6 6 10 C4.02 10 2.04 10 0 10 C0 6.7 0 3.4 0 0 Z " fill="#FDF5A9" transform="translate(67,45)"/>
<path d="M0 0 C1.98 0 3.96 0 6 0 C6 3.3 6 6.6 6 10 C4.02 10 2.04 10 0 10 C0 6.7 0 3.4 0 0 Z " fill="#FDF5A9" transform="translate(27,45)"/>
</svg>
